<mxfile host="app.diagrams.net" agent="Mozilla/5.0 (Windows NT 10.0; Win64; x64) AppleWebKit/537.36 (KHTML, like Gecko) Chrome/139.0.0.0 Safari/537.36" version="28.1.2">
  <diagram name="Página-1" id="A1c4Kn1NqaynSJTR4V6O">
    <mxGraphModel dx="1024" dy="535" grid="1" gridSize="10" guides="1" tooltips="1" connect="1" arrows="1" fold="1" page="1" pageScale="1" pageWidth="827" pageHeight="1169" math="0" shadow="0">
      <root>
        <mxCell id="0" />
        <mxCell id="1" parent="0" />
        <mxCell id="bPSIyCdMn1M33QzJovcV-1" value="&lt;font style=&quot;font-size: 22px;&quot;&gt;&lt;b&gt;EXERCÍCIO 3&lt;/b&gt;&lt;/font&gt;" style="text;html=1;align=center;verticalAlign=middle;resizable=0;points=[];autosize=1;strokeColor=none;fillColor=none;" vertex="1" parent="1">
          <mxGeometry x="334" y="40" width="160" height="40" as="geometry" />
        </mxCell>
        <mxCell id="bPSIyCdMn1M33QzJovcV-3" value="&lt;font style=&quot;font-size: 20px;&quot;&gt;&lt;b&gt;Diagrama de Sequência - Locação de Fitas&amp;nbsp;&lt;/b&gt;&lt;/font&gt;" style="text;html=1;align=center;verticalAlign=middle;resizable=0;points=[];autosize=1;strokeColor=none;fillColor=none;" vertex="1" parent="1">
          <mxGeometry x="190" y="120" width="430" height="40" as="geometry" />
        </mxCell>
        <mxCell id="bPSIyCdMn1M33QzJovcV-4" value="&lt;font style=&quot;font-size: 15px;&quot;&gt;Sócio&lt;/font&gt;" style="shape=umlActor;verticalLabelPosition=bottom;verticalAlign=top;html=1;outlineConnect=0;" vertex="1" parent="1">
          <mxGeometry x="100" y="240" width="30" height="60" as="geometry" />
        </mxCell>
        <mxCell id="bPSIyCdMn1M33QzJovcV-5" value="&lt;font style=&quot;font-size: 15px;&quot;&gt;Atendente&lt;/font&gt;" style="shape=umlActor;verticalLabelPosition=bottom;verticalAlign=top;html=1;outlineConnect=0;" vertex="1" parent="1">
          <mxGeometry x="280" y="240" width="30" height="60" as="geometry" />
        </mxCell>
        <mxCell id="bPSIyCdMn1M33QzJovcV-7" value="&lt;u&gt;&lt;font style=&quot;font-size: 18px;&quot;&gt;:Sistema&lt;/font&gt;&lt;/u&gt;" style="rounded=1;whiteSpace=wrap;html=1;" vertex="1" parent="1">
          <mxGeometry x="413.5" y="240" width="120" height="60" as="geometry" />
        </mxCell>
        <mxCell id="bPSIyCdMn1M33QzJovcV-8" value="&lt;u&gt;&lt;font style=&quot;font-size: 18px;&quot;&gt;:Locação&lt;/font&gt;&lt;/u&gt;" style="rounded=1;whiteSpace=wrap;html=1;" vertex="1" parent="1">
          <mxGeometry x="630" y="240" width="120" height="60" as="geometry" />
        </mxCell>
        <mxCell id="bPSIyCdMn1M33QzJovcV-9" value="" style="html=1;points=[[0,0,0,0,5],[0,1,0,0,-5],[1,0,0,0,5],[1,1,0,0,-5]];perimeter=orthogonalPerimeter;outlineConnect=0;targetShapes=umlLifeline;portConstraint=eastwest;newEdgeStyle={&quot;curved&quot;:0,&quot;rounded&quot;:0};" vertex="1" parent="1">
          <mxGeometry x="110" y="350" width="10" height="630" as="geometry" />
        </mxCell>
        <mxCell id="bPSIyCdMn1M33QzJovcV-10" value="" style="html=1;points=[[0,0,0,0,5],[0,1,0,0,-5],[1,0,0,0,5],[1,1,0,0,-5]];perimeter=orthogonalPerimeter;outlineConnect=0;targetShapes=umlLifeline;portConstraint=eastwest;newEdgeStyle={&quot;curved&quot;:0,&quot;rounded&quot;:0};" vertex="1" parent="1">
          <mxGeometry x="290" y="350" width="10" height="630" as="geometry" />
        </mxCell>
        <mxCell id="bPSIyCdMn1M33QzJovcV-11" value="" style="html=1;points=[[0,0,0,0,5],[0,1,0,0,-5],[1,0,0,0,5],[1,1,0,0,-5]];perimeter=orthogonalPerimeter;outlineConnect=0;targetShapes=umlLifeline;portConstraint=eastwest;newEdgeStyle={&quot;curved&quot;:0,&quot;rounded&quot;:0};" vertex="1" parent="1">
          <mxGeometry x="468.5" y="350" width="10" height="630" as="geometry" />
        </mxCell>
        <mxCell id="bPSIyCdMn1M33QzJovcV-12" value="" style="html=1;points=[[0,0,0,0,5],[0,1,0,0,-5],[1,0,0,0,5],[1,1,0,0,-5]];perimeter=orthogonalPerimeter;outlineConnect=0;targetShapes=umlLifeline;portConstraint=eastwest;newEdgeStyle={&quot;curved&quot;:0,&quot;rounded&quot;:0};" vertex="1" parent="1">
          <mxGeometry x="685" y="350" width="10" height="630" as="geometry" />
        </mxCell>
        <mxCell id="bPSIyCdMn1M33QzJovcV-14" value="Verifica Cadastro Sócio" style="html=1;verticalAlign=bottom;endArrow=block;curved=0;rounded=0;" edge="1" parent="1">
          <mxGeometry x="-0.0013" width="80" relative="1" as="geometry">
            <mxPoint x="300" y="380" as="sourcePoint" />
            <mxPoint x="468.5" y="380" as="targetPoint" />
            <mxPoint as="offset" />
          </mxGeometry>
        </mxCell>
        <mxCell id="bPSIyCdMn1M33QzJovcV-15" value="" style="html=1;points=[[0,0,0,0,5],[0,1,0,0,-5],[1,0,0,0,5],[1,1,0,0,-5]];perimeter=orthogonalPerimeter;outlineConnect=0;targetShapes=umlLifeline;portConstraint=eastwest;newEdgeStyle={&quot;curved&quot;:0,&quot;rounded&quot;:0};" vertex="1" parent="1">
          <mxGeometry x="548.5" y="420" width="10" height="80" as="geometry" />
        </mxCell>
        <mxCell id="bPSIyCdMn1M33QzJovcV-16" value="Não Cadastrado" style="html=1;verticalAlign=bottom;endArrow=block;curved=0;rounded=0;entryX=0;entryY=0;entryDx=0;entryDy=5;" edge="1" target="bPSIyCdMn1M33QzJovcV-15" parent="1">
          <mxGeometry relative="1" as="geometry">
            <mxPoint x="478.5" y="425" as="sourcePoint" />
          </mxGeometry>
        </mxCell>
        <mxCell id="bPSIyCdMn1M33QzJovcV-17" value="Locação Cancelada" style="html=1;verticalAlign=bottom;endArrow=open;dashed=1;endSize=8;curved=0;rounded=0;exitX=0;exitY=1;exitDx=0;exitDy=-5;" edge="1" source="bPSIyCdMn1M33QzJovcV-15" parent="1">
          <mxGeometry relative="1" as="geometry">
            <mxPoint x="478.5" y="495" as="targetPoint" />
          </mxGeometry>
        </mxCell>
        <mxCell id="bPSIyCdMn1M33QzJovcV-19" value="Verifica Locação Pendente" style="html=1;verticalAlign=bottom;endArrow=block;curved=0;rounded=0;" edge="1" parent="1">
          <mxGeometry x="-0.0013" width="80" relative="1" as="geometry">
            <mxPoint x="300" y="584" as="sourcePoint" />
            <mxPoint x="470" y="584" as="targetPoint" />
            <mxPoint as="offset" />
          </mxGeometry>
        </mxCell>
        <mxCell id="bPSIyCdMn1M33QzJovcV-21" value="" style="html=1;points=[[0,0,0,0,5],[0,1,0,0,-5],[1,0,0,0,5],[1,1,0,0,-5]];perimeter=orthogonalPerimeter;outlineConnect=0;targetShapes=umlLifeline;portConstraint=eastwest;newEdgeStyle={&quot;curved&quot;:0,&quot;rounded&quot;:0};" vertex="1" parent="1">
          <mxGeometry x="548.5" y="620" width="10" height="80" as="geometry" />
        </mxCell>
        <mxCell id="bPSIyCdMn1M33QzJovcV-22" value="Locação Pendente" style="html=1;verticalAlign=bottom;endArrow=block;curved=0;rounded=0;entryX=0;entryY=0;entryDx=0;entryDy=5;" edge="1" parent="1" target="bPSIyCdMn1M33QzJovcV-21">
          <mxGeometry relative="1" as="geometry">
            <mxPoint x="478.5" y="625" as="sourcePoint" />
          </mxGeometry>
        </mxCell>
        <mxCell id="bPSIyCdMn1M33QzJovcV-23" value="Locação Cancelada" style="html=1;verticalAlign=bottom;endArrow=open;dashed=1;endSize=8;curved=0;rounded=0;exitX=0;exitY=1;exitDx=0;exitDy=-5;" edge="1" parent="1" source="bPSIyCdMn1M33QzJovcV-21">
          <mxGeometry relative="1" as="geometry">
            <mxPoint x="478.5" y="695" as="targetPoint" />
          </mxGeometry>
        </mxCell>
        <mxCell id="bPSIyCdMn1M33QzJovcV-24" value="Locação Cancelada" style="html=1;verticalAlign=bottom;endArrow=open;dashed=1;endSize=8;curved=0;rounded=0;entryX=1;entryY=0.24;entryDx=0;entryDy=0;entryPerimeter=0;" edge="1" parent="1" target="bPSIyCdMn1M33QzJovcV-9">
          <mxGeometry relative="1" as="geometry">
            <mxPoint x="468.5" y="530" as="sourcePoint" />
            <mxPoint x="388.5" y="530" as="targetPoint" />
          </mxGeometry>
        </mxCell>
        <mxCell id="bPSIyCdMn1M33QzJovcV-25" value="Locação Cancelada" style="html=1;verticalAlign=bottom;endArrow=open;dashed=1;endSize=8;curved=0;rounded=0;entryX=1;entryY=0.24;entryDx=0;entryDy=0;entryPerimeter=0;" edge="1" parent="1">
          <mxGeometry relative="1" as="geometry">
            <mxPoint x="469.25" y="720" as="sourcePoint" />
            <mxPoint x="120.75" y="720" as="targetPoint" />
          </mxGeometry>
        </mxCell>
        <mxCell id="bPSIyCdMn1M33QzJovcV-26" value="Verifica Cadastro Sócio" style="html=1;verticalAlign=bottom;endArrow=block;curved=0;rounded=0;" edge="1" parent="1">
          <mxGeometry x="-0.0013" width="80" relative="1" as="geometry">
            <mxPoint x="300" y="780" as="sourcePoint" />
            <mxPoint x="468.5" y="780" as="targetPoint" />
            <mxPoint as="offset" />
          </mxGeometry>
        </mxCell>
        <mxCell id="bPSIyCdMn1M33QzJovcV-27" value="Locação Registrada" style="html=1;verticalAlign=bottom;endArrow=block;curved=0;rounded=0;" edge="1" parent="1" target="bPSIyCdMn1M33QzJovcV-12">
          <mxGeometry width="80" relative="1" as="geometry">
            <mxPoint x="300" y="840" as="sourcePoint" />
            <mxPoint x="380" y="840" as="targetPoint" />
          </mxGeometry>
        </mxCell>
        <mxCell id="bPSIyCdMn1M33QzJovcV-28" value="Cópias Emprestadas" style="html=1;verticalAlign=bottom;endArrow=block;curved=0;rounded=0;" edge="1" parent="1" target="bPSIyCdMn1M33QzJovcV-9">
          <mxGeometry width="80" relative="1" as="geometry">
            <mxPoint x="685" y="890" as="sourcePoint" />
            <mxPoint x="525" y="890" as="targetPoint" />
          </mxGeometry>
        </mxCell>
      </root>
    </mxGraphModel>
  </diagram>
</mxfile>
